HIERARCHY
ROOT Hip
{
	OFFSET	0.0000	0.0000	0.0000
	CHANNELS 6 Xposition Yposition Zposition Xrotation Yrotation Zrotation
	JOINT LowerSpine
	{
		OFFSET	0.0000	9.2663	-5.5158
		CHANNELS 3 Xrotation Yrotation Zrotation
		JOINT MiddleSpine
		{
			OFFSET	0.0000	8.4562	0.3976
			CHANNELS 3 Xrotation Yrotation Zrotation
			JOINT Chest
			{
				OFFSET	0.0000	10.4635	-2.0962
				CHANNELS 3 Xrotation Yrotation Zrotation
				JOINT Neck
				{
					OFFSET	0.0000	23.5793	-0.4413
					CHANNELS 3 Xrotation Yrotation Zrotation
					JOINT Head
					{
						OFFSET	-0.0001	13.3155	3.6218
						CHANNELS 3 Xrotation Yrotation Zrotation
						End Site
						{
							OFFSET	0.0001	18.6051	0.5554
						}
					}
				}
				JOINT LClavicle
				{
					OFFSET	2.1425	22.7552	7.0165
					CHANNELS 3 Xrotation Yrotation Zrotation
					JOINT LShoulder
					{
						OFFSET	12.5166	3.2639	-5.2813
						CHANNELS 3 Xrotation Yrotation Zrotation
						JOINT LForearm
						{
							OFFSET	29.5419	-0.1047	-0.2560
							CHANNELS 3 Xrotation Yrotation Zrotation
							JOINT LHand
							{
								OFFSET	24.6442	0.0715	-0.1476
								CHANNELS 3 Xrotation Yrotation Zrotation
								JOINT LFinger1
								{
									OFFSET	9.5514	0.8353	2.6529
									CHANNELS 3 Xrotation Yrotation Zrotation
									JOINT LFinger11
									{
										OFFSET	3.5727	-0.8712	0.6295
										CHANNELS 3 Xrotation Yrotation Zrotation
										JOINT LFinger12
										{
											OFFSET	2.4390	-0.5949	0.4299
											CHANNELS 3 Xrotation Yrotation Zrotation
											End Site
											{
												OFFSET	1.7356	-0.5181	0.2815
											}
										}
									}
								}
								JOINT LFinger2
								{
									OFFSET	9.6939	0.9646	0.2310
									CHANNELS 3 Xrotation Yrotation Zrotation
									JOINT LFinger21
									{
										OFFSET	4.4174	0.0123	-0.0261
										CHANNELS 3 Xrotation Yrotation Zrotation
										JOINT LFinger22
										{
											OFFSET	2.4486	0.0075	-0.0149
											CHANNELS 3 Xrotation Yrotation Zrotation
											End Site
											{
												OFFSET	2.1993	-0.1553	0.0029
											}
										}
									}
								}
								JOINT LFinger3
								{
									OFFSET	9.1870	0.6438	-2.1735
									CHANNELS 3 Xrotation Yrotation Zrotation
									JOINT LFinger31
									{
										OFFSET	4.0084	-0.2029	-0.2510
										CHANNELS 3 Xrotation Yrotation Zrotation
										JOINT LFinger32
										{
											OFFSET	2.2842	-0.1149	-0.1435
											CHANNELS 3 Xrotation Yrotation Zrotation
											End Site
											{
												OFFSET	2.0196	-0.2483	-0.0955
											}
										}
									}
								}
								JOINT LFinger4
								{
									OFFSET	8.5252	-0.6478	-3.7536
									CHANNELS 3 Xrotation Yrotation Zrotation
									JOINT LFinger41
									{
										OFFSET	2.4655	-0.5142	-0.6806
										CHANNELS 3 Xrotation Yrotation Zrotation
										JOINT LFinger42
										{
											OFFSET	1.8080	-0.3765	-0.4994
											CHANNELS 3 Xrotation Yrotation Zrotation
											End Site
											{
												OFFSET	1.6047	-0.4409	-0.3682
											}
										}
									}
								}
								JOINT LFinger0
								{
									OFFSET	1.9759	-1.4955	1.4979
									CHANNELS 3 Xrotation Yrotation Zrotation
									JOINT LFinger01
									{
										OFFSET	3.6787	-1.2081	2.7735
										CHANNELS 3 Xrotation Yrotation Zrotation
										JOINT LFinger02
										{
											OFFSET	2.4224	-0.8668	1.7452
											CHANNELS 3 Xrotation Yrotation Zrotation
											End Site
											{
												OFFSET	1.7813	-0.6132	1.2198
											}
										}
									}
								}
							}
						}
					}
				}
				JOINT RClavicle
				{
					OFFSET	-2.1425	22.7552	7.0164
					CHANNELS 3 Xrotation Yrotation Zrotation
					JOINT RShoulder
					{
						OFFSET	-12.5188	3.2645	-5.2822
						CHANNELS 3 Xrotation Yrotation Zrotation
						JOINT RForearm
						{
							OFFSET	-29.5419	-0.1047	-0.2560
							CHANNELS 3 Xrotation Yrotation Zrotation
							JOINT RHand
							{
								OFFSET	-24.6442	0.0715	-0.1476
								CHANNELS 3 Xrotation Yrotation Zrotation
								JOINT RFinger1
								{
									OFFSET	-9.5514	0.8354	2.6529
									CHANNELS 3 Xrotation Yrotation Zrotation
									JOINT RFinger11
									{
										OFFSET	-3.5727	-0.8712	0.6295
										CHANNELS 3 Xrotation Yrotation Zrotation
										JOINT RFinger12
										{
											OFFSET	-2.4390	-0.5950	0.4299
											CHANNELS 3 Xrotation Yrotation Zrotation
											End Site
											{
												OFFSET	-1.7356	-0.5181	0.2815
											}
										}
									}
								}
								JOINT RFinger2
								{
									OFFSET	-9.6939	0.9647	0.2310
									CHANNELS 3 Xrotation Yrotation Zrotation
									JOINT RFinger21
									{
										OFFSET	-4.4175	0.0123	-0.0261
										CHANNELS 3 Xrotation Yrotation Zrotation
										JOINT RFinger22
										{
											OFFSET	-2.4486	0.0075	-0.0150
											CHANNELS 3 Xrotation Yrotation Zrotation
											End Site
											{
												OFFSET	-2.1993	-0.1553	0.0029
											}
										}
									}
								}
								JOINT RFinger3
								{
									OFFSET	-9.1870	0.6438	-2.1735
									CHANNELS 3 Xrotation Yrotation Zrotation
									JOINT RFinger31
									{
										OFFSET	-4.0084	-0.2029	-0.2510
										CHANNELS 3 Xrotation Yrotation Zrotation
										JOINT RFinger32
										{
											OFFSET	-2.2842	-0.1149	-0.1435
											CHANNELS 3 Xrotation Yrotation Zrotation
											End Site
											{
												OFFSET	-2.0196	-0.2483	-0.0955
											}
										}
									}
								}
								JOINT RFinger4
								{
									OFFSET	-8.5252	-0.6478	-3.7536
									CHANNELS 3 Xrotation Yrotation Zrotation
									JOINT RFinger41
									{
										OFFSET	-2.4655	-0.5141	-0.6806
										CHANNELS 3 Xrotation Yrotation Zrotation
										JOINT RFinger42
										{
											OFFSET	-1.8080	-0.3764	-0.4994
											CHANNELS 3 Xrotation Yrotation Zrotation
											End Site
											{
												OFFSET	-1.6047	-0.4409	-0.3682
											}
										}
									}
								}
								JOINT RFinger0
								{
									OFFSET	-1.9759	-1.4954	1.4978
									CHANNELS 3 Xrotation Yrotation Zrotation
									JOINT RFinger01
									{
										OFFSET	-3.6787	-1.2083	2.7736
										CHANNELS 3 Xrotation Yrotation Zrotation
										JOINT RFinger02
										{
											OFFSET	-2.4223	-0.8667	1.7452
											CHANNELS 3 Xrotation Yrotation Zrotation
											End Site
											{
												OFFSET	-1.7813	-0.6132	1.2198
											}
										}
									}
								}
							}
						}
					}
				}
			}
		}
	}
	JOINT RThigh
	{
		OFFSET	-10.9561	4.1886	-0.8987
		CHANNELS 3 Xrotation Yrotation Zrotation
		JOINT RShin
		{
			OFFSET	-0.7932	-43.1154	0.0000
			CHANNELS 3 Xrotation Yrotation Zrotation
			JOINT RFoot
			{
				OFFSET	0.0000	-42.3368	0.0000
				CHANNELS 3 Xrotation Yrotation Zrotation
				JOINT RToe
				{
					OFFSET	0.0000	-4.6532	9.7304
					CHANNELS 3 Xrotation Yrotation Zrotation
					End Site
					{
						OFFSET	0.0000	0.0000	6.5278
					}
				}
			}
		}
	}
	JOINT LThigh
	{
		OFFSET	10.9559	4.1889	-0.8988
		CHANNELS 3 Xrotation Yrotation Zrotation
		JOINT LShin
		{
			OFFSET	0.7933	-43.1157	0.0000
			CHANNELS 3 Xrotation Yrotation Zrotation
			JOINT LFoot
			{
				OFFSET	0.0000	-42.3368	0.0000
				CHANNELS 3 Xrotation Yrotation Zrotation
				JOINT LToe
				{
					OFFSET	0.0000	-4.6532	9.7305
					CHANNELS 3 Xrotation Yrotation Zrotation
					End Site
					{
						OFFSET	0.0000	0.0000	6.5278
					}
				}
			}
		}
	}
}
MOTION
Frames:	4
Frame Time: 0.0333333000
	9.2726	43.5374	-38.3079	36.511380	38.200120	-36.574120	0.000000	0.000000	0.000000	-2.743618	-3.228455	-6.480681	-10.581190	-9.359662	-22.291820	-0.601111	0.006482	-0.025503	5.462582	0.022092	1.353679	0.000000	0.000000	10.933690	-64.868420	-4.946935	30.612250	0.070437	-25.078490	0.008250	-94.534250	7.166087	-0.257881	0.000000	0.000000	0.000000	0.000000	0.000000	0.000000	0.000000	0.000000	0.000000	0.000000	0.000000	0.000000	0.000000	0.000000	0.000000	0.000000	0.000000	0.000000	0.000000	0.000000	0.000000	0.000000	0.000000	0.000000	0.000000	0.000000	0.000000	0.000000	0.000000	0.000000	0.000000	0.000000	0.000000	0.000000	0.000000	0.000000	0.000000	0.000000	0.000000	0.000000	0.000000	0.000000	0.000000	0.000000	0.000000	0.000000	0.000000	-28.679080	-8.370785	29.814360	-80.372340	0.000000	0.534616	0.000000	0.000000	0.000000	0.000000	0.000000	0.000000	0.000000	0.000000	0.000000	0.000000	0.000000	0.000000	0.000000	0.000000	0.000000	0.000000	0.000000	0.000000	0.000000	0.000000	0.000000	0.000000	0.000000	0.000000	0.000000	0.000000	0.000000	0.000000	0.000000	0.000000	0.000000	0.000000	0.000000	0.000000	0.000000	0.000000	0.000000	0.000000	0.000000	0.000000	0.000000	0.000000	0.000000	0.000000	0.000000	0.000000	0.000000	0.000000	0.000000	-96.895890	-5.242100	-40.813920	81.513400	0.000005	-0.000005	0.897888	0.365585	0.171005	0.000000	0.000000	0.000000	-100.597700	0.929579	60.878510	81.908540	0.000007	-0.000003	-0.584458	-0.277194	-0.135194	-0.176030	0.000000	0.000000
	9.2970	43.9433	-38.4464	36.680360	37.963810	-37.126720	0.000000	0.000000	0.000000	-2.558581	-3.148674	-6.323929	-9.947139	-9.208293	-21.704470	-0.642360	0.135827	-0.488075	5.067540	0.015973	1.099978	0.000000	0.000000	10.519160	-64.176480	-4.148154	30.554420	0.070850	-24.643000	0.007566	-94.562230	9.558532	-0.065534	0.000000	0.000000	0.000000	0.000000	0.000000	0.000000	0.000000	0.000000	0.000000	0.000000	0.000000	0.000000	0.000000	0.000000	0.000000	0.000000	0.000000	0.000000	0.000000	0.000000	0.000000	0.000000	0.000000	0.000000	0.000000	0.000000	0.000000	0.000000	0.000000	0.000000	0.000000	0.000000	0.000000	0.000000	0.000000	0.000000	0.000000	0.000000	0.000000	0.000000	0.000000	0.000000	0.000000	0.000000	0.000000	0.000000	0.000000	-27.803750	-8.488941	29.630940	-82.797530	0.000000	0.880131	0.000000	0.000000	0.000000	0.000000	0.000000	0.000000	0.000000	0.000000	0.000000	0.000000	0.000000	0.000000	0.000000	0.000000	0.000000	0.000000	0.000000	0.000000	0.000000	0.000000	0.000000	0.000000	0.000000	0.000000	0.000000	0.000000	0.000000	0.000000	0.000000	0.000000	0.000000	0.000000	0.000000	0.000000	0.000000	0.000000	0.000000	0.000000	0.000000	0.000000	0.000000	0.000000	0.000000	0.000000	0.000000	0.000000	0.000000	0.000000	0.000000	-96.873650	-6.164138	-40.628470	80.846950	0.000005	-0.000005	0.920939	0.638209	0.298924	0.000000	0.000000	0.000000	-100.629800	0.843713	60.533550	81.557470	0.000007	-0.000003	-0.713424	-0.297248	-0.144459	-0.060001	0.000000	0.000000
	9.3143	44.1614	-38.4814	36.743950	37.853190	-37.310940	0.000000	0.000000	0.000000	-2.475358	-3.114330	-6.281279	-9.682028	-9.134226	-21.531350	-0.695468	0.192911	-0.692207	4.935365	0.013648	0.995942	0.000000	0.000000	10.408620	-63.693380	-3.534889	30.604120	0.075715	-24.649880	0.006926	-94.570530	10.156630	-0.017049	0.000000	0.000000	0.000000	0.000000	0.000000	0.000000	0.000000	0.000000	0.000000	0.000000	0.000000	0.000000	0.000000	0.000000	0.000000	0.000000	0.000000	0.000000	0.000000	0.000000	0.000000	0.000000	0.000000	0.000000	0.000000	0.000000	0.000000	0.000000	0.000000	0.000000	0.000000	0.000000	0.000000	0.000000	0.000000	0.000000	0.000000	0.000000	0.000000	0.000000	0.000000	0.000000	0.000000	0.000000	0.000000	0.000000	0.000000	-27.448840	-8.620199	29.454440	-83.709730	0.000000	1.224082	0.000000	0.000000	0.000000	0.000000	0.000000	0.000000	0.000000	0.000000	0.000000	0.000000	0.000000	0.000000	0.000000	0.000000	0.000000	0.000000	0.000000	0.000000	0.000000	0.000000	0.000000	0.000000	0.000000	0.000000	0.000000	0.000000	0.000000	0.000000	0.000000	0.000000	0.000000	0.000000	0.000000	0.000000	0.000000	0.000000	0.000000	0.000000	0.000000	0.000000	0.000000	0.000000	0.000000	0.000000	0.000000	0.000000	0.000000	0.000000	0.000000	-96.805920	-6.555503	-40.510730	80.509740	0.000005	-0.000005	0.981425	0.778889	0.364441	0.000000	0.000000	0.000000	-100.637200	0.904650	60.457100	81.355380	0.000007	-0.000003	-0.771751	-0.323753	-0.157529	-0.014693	0.000000	0.000000
	9.3292	44.2950	-38.4981	36.773010	37.776870	-37.362550	0.000000	0.000000	0.000000	-2.422561	-3.092421	-6.276815	-9.534421	-9.078420	-21.493190	-0.768876	0.223689	-0.800657	4.909427	0.012826	0.969884	0.000000	0.000000	10.380950	-63.263200	-2.895233	30.721170	0.079759	-24.960640	0.006832	-94.570530	10.156630	-0.017049	0.000000	0.000000	0.000000	0.000000	0.000000	0.000000	0.000000	0.000000	0.000000	0.000000	0.000000	0.000000	0.000000	0.000000	0.000000	0.000000	0.000000	0.000000	0.000000	0.000000	0.000000	0.000000	0.000000	0.000000	0.000000	0.000000	0.000000	0.000000	0.000000	0.000000	0.000000	0.000000	0.000000	0.000000	0.000000	0.000000	0.000000	0.000000	0.000000	0.000000	0.000000	0.000000	0.000000	0.000000	0.000000	0.000000	0.000000	-27.252970	-8.645081	29.392480	-84.245900	0.000000	1.401174	0.000000	0.000000	0.000000	0.000000	0.000000	0.000000	0.000000	0.000000	0.000000	0.000000	0.000000	0.000000	0.000000	0.000000	0.000000	0.000000	0.000000	0.000000	0.000000	0.000000	0.000000	0.000000	0.000000	0.000000	0.000000	0.000000	0.000000	0.000000	0.000000	0.000000	0.000000	0.000000	0.000000	0.000000	0.000000	0.000000	0.000000	0.000000	0.000000	0.000000	0.000000	0.000000	0.000000	0.000000	0.000000	0.000000	0.000000	0.000000	0.000000	-96.755600	-6.710704	-40.387100	80.314510	0.000005	-0.000005	1.075586	0.744429	0.347418	0.000000	0.000000	0.000000	-100.649500	0.981338	60.464020	81.264620	0.000007	-0.000003	-0.820878	-0.345299	-0.168111	-0.003286	0.000000	0.000000
